<svg width="268" height="177" viewBox="0 0 268 177" fill="none" xmlns="http://www.w3.org/2000/svg">
<path d="M268 69.1204C268 107.295 173.856 177 112 177C50.1441 177 0 107.295 0 69.1204C0 30.9463 50.1441 0 112 0C173.856 0 268 30.9463 268 69.1204Z" fill="#F26600"/>
<path d="M66.3125 96.7534H53.9844L51.6406 103.785H44.1641L56.8672 69.6597H63.3828L76.1562 103.785H68.6797L66.3125 96.7534ZM55.8828 91.0581H64.4141L60.125 78.2847L55.8828 91.0581ZM84.0078 78.4253L84.2188 81.355C86.0312 79.0894 88.4609 77.9565 91.5078 77.9565C94.1953 77.9565 96.1953 78.7456 97.5078 80.3237C98.8203 81.9019 99.4922 84.2612 99.5234 87.4019V103.785H92.75V87.5659C92.75 86.1284 92.4375 85.0894 91.8125 84.4487C91.1875 83.7925 90.1484 83.4644 88.6953 83.4644C86.7891 83.4644 85.3594 84.2769 84.4062 85.9019V103.785H77.6328V78.4253H84.0078ZM103.695 90.9175C103.695 87.0269 104.617 83.894 106.461 81.519C108.32 79.144 110.82 77.9565 113.961 77.9565C116.742 77.9565 118.906 78.9097 120.453 80.8159L120.734 78.4253H126.875V102.941C126.875 105.16 126.367 107.089 125.352 108.73C124.352 110.371 122.938 111.621 121.109 112.48C119.281 113.339 117.141 113.769 114.688 113.769C112.828 113.769 111.016 113.394 109.25 112.644C107.484 111.91 106.148 110.957 105.242 109.785L108.242 105.66C109.93 107.55 111.977 108.496 114.383 108.496C116.18 108.496 117.578 108.011 118.578 107.042C119.578 106.089 120.078 104.73 120.078 102.964V101.605C118.516 103.371 116.461 104.253 113.914 104.253C110.867 104.253 108.398 103.066 106.508 100.691C104.633 98.3003 103.695 95.1362 103.695 91.1987V90.9175ZM110.469 91.4097C110.469 93.7065 110.93 95.5112 111.852 96.8237C112.773 98.1206 114.039 98.769 115.648 98.769C117.711 98.769 119.188 97.9956 120.078 96.4487V85.7847C119.172 84.2378 117.711 83.4644 115.695 83.4644C114.07 83.4644 112.789 84.1284 111.852 85.4565C110.93 86.7847 110.469 88.769 110.469 91.4097ZM147.289 101.207C145.617 103.238 143.305 104.253 140.352 104.253C137.633 104.253 135.555 103.472 134.117 101.91C132.695 100.347 131.969 98.0581 131.938 95.0425V78.4253H138.711V94.8081C138.711 97.4487 139.914 98.769 142.32 98.769C144.617 98.769 146.195 97.9722 147.055 96.3784V78.4253H153.852V103.785H147.477L147.289 101.207ZM166.109 103.785H159.312V67.7847H166.109V103.785ZM186.406 103.785C186.094 103.175 185.867 102.417 185.727 101.511C184.086 103.339 181.953 104.253 179.328 104.253C176.844 104.253 174.781 103.535 173.141 102.097C171.516 100.66 170.703 98.8472 170.703 96.6597C170.703 93.9722 171.695 91.9097 173.68 90.4722C175.68 89.0347 178.562 88.3081 182.328 88.2925H185.445V86.8394C185.445 85.6675 185.141 84.73 184.531 84.0269C183.938 83.3237 182.992 82.9722 181.695 82.9722C180.555 82.9722 179.656 83.2456 179 83.7925C178.359 84.3394 178.039 85.0894 178.039 86.0425H171.266C171.266 84.5737 171.719 83.2144 172.625 81.9644C173.531 80.7144 174.812 79.7378 176.469 79.0347C178.125 78.3159 179.984 77.9565 182.047 77.9565C185.172 77.9565 187.648 78.7456 189.477 80.3237C191.32 81.8862 192.242 84.0894 192.242 86.9331V97.9253C192.258 100.332 192.594 102.152 193.25 103.386V103.785H186.406ZM180.805 99.0737C181.805 99.0737 182.727 98.855 183.57 98.4175C184.414 97.9644 185.039 97.3628 185.445 96.6128V92.2534H182.914C179.523 92.2534 177.719 93.4253 177.5 95.769L177.477 96.1675C177.477 97.0112 177.773 97.7065 178.367 98.2534C178.961 98.8003 179.773 99.0737 180.805 99.0737ZM211.695 84.7769C210.773 84.6519 209.961 84.5894 209.258 84.5894C206.695 84.5894 205.016 85.4565 204.219 87.1909V103.785H197.445V78.4253H203.844L204.031 81.4487C205.391 79.1206 207.273 77.9565 209.68 77.9565C210.43 77.9565 211.133 78.0581 211.789 78.2612L211.695 84.7769Z" fill="white"/>
</svg>
