<svg width="1440" height="149" viewBox="0 0 1440 149" fill="none" xmlns="http://www.w3.org/2000/svg">
<path fill-rule="evenodd" clip-rule="evenodd" d="M1416.71 157.713L1416.5 157.712L1416.47 149.557L1409.25 149.591L1409.29 43.8434L1413.02 43.8619C1406.49 43.8261 1401.2 39.3518 1401.21 33.8654C1401.21 28.3769 1406.5 23.954 1413.03 23.9864C1419.56 24.0189 1424.86 28.4945 1424.85 33.9829C1424.85 39.4693 1419.56 43.891 1413.03 43.8619L1416.76 43.8805L1416.71 157.713Z" fill="#C4C4C4"/>
<path fill-rule="evenodd" clip-rule="evenodd" d="M344.305 107.907L344.343 100.907L345.556 100.914L345.585 99.7436L352.583 99.9168L352.557 100.952L382.406 101.113L383.46 16.4954L387.556 16.5464C380.381 16.454 374.61 12.8224 374.665 8.43247C374.72 4.04066 380.584 0.552915 387.763 0.642369C394.942 0.731823 400.718 4.36461 400.663 8.75642C400.608 13.1464 394.749 16.633 387.574 16.5467L391.67 16.5977L390.571 104.828C391.744 104.172 393.031 103.813 394.38 103.821C399.754 103.852 404.061 109.697 403.999 116.877C403.938 124.056 399.53 129.851 394.156 129.82C388.781 129.789 384.474 123.944 384.536 116.765C384.564 113.448 385.52 110.427 387.07 108.139L352.384 107.951L352.272 112.474L384.571 112.66L384.536 116.765L384.5 120.87L352.069 120.683L351.445 145.903L344.447 145.73L345.068 120.643L327.728 120.543L327.712 157.713L327.504 157.712L327.466 149.557L320.248 149.591L320.26 120.5L273.027 120.228L273.029 120H272.449V108.599L264.347 108.614L263.685 146.571L256.686 146.449L257.346 108.627L256.268 108.629L256.255 101.629L257.468 101.627L257.489 100.456L264.488 100.578L264.47 101.614L272.449 101.599V82.1093L229.744 81.4073L229.712 157.713L229.504 157.712L229.466 149.557L222.248 149.591L222.292 43.8433L226.018 43.8618C219.492 43.826 214.204 39.3518 214.206 33.8654C214.208 28.3769 219.504 23.9539 226.034 23.9864C232.565 24.0188 237.857 28.4944 237.854 33.9829C237.852 39.4693 232.56 43.891 226.033 43.8619L229.76 43.8804L229.747 74.4058L272.449 75.1078V74H281.015V75.2487L282.44 75.2721L282.281 82.2709L281.015 82.2501V101.583L294.319 101.558L294.756 16.9342L298.852 16.9553C291.677 16.9152 285.88 13.3258 285.903 8.93557C285.925 4.54348 291.764 1.01308 298.944 1.05021C306.123 1.08734 311.925 4.67793 311.902 9.07003C311.88 13.4603 306.046 16.9895 298.87 16.9555L302.967 16.9766L302.495 108.07L302.267 108.069L302.268 108.543L281.015 108.583V112.064L320.263 112.289L320.292 43.8433L324.018 43.8618C317.492 43.826 312.204 39.3518 312.206 33.8654C312.208 28.3769 317.504 23.9539 324.034 23.9864C330.565 24.0188 335.857 28.4944 335.854 33.9829C335.852 39.4693 330.56 43.891 324.033 43.8619L327.76 43.8804L327.731 112.332L345.271 112.433L345.383 107.913L344.305 107.907ZM598.344 101.598L598.306 108.646L599.389 108.652L599.222 115.399L577.73 115.275L577.76 43.8804L574.033 43.8619C580.56 43.891 585.852 39.4693 585.854 33.9829C585.857 28.4944 580.565 24.0188 574.034 23.9864C567.504 23.9539 562.208 28.3769 562.206 33.8654C562.204 39.3518 567.492 43.826 574.018 43.8618L570.292 43.8433L570.262 115.232L541.015 115.064V85.2501L542.281 85.2709L542.44 78.2721L541.015 78.2487V77H532.449V78.1078L525.746 77.9976L525.76 43.8804L522.033 43.8619C528.56 43.891 533.852 39.4693 533.854 33.9829C533.857 28.4944 528.565 24.0188 522.034 23.9864C515.504 23.9539 510.208 28.3769 510.206 33.8654C510.204 39.3518 515.492 43.826 522.018 43.8618L518.292 43.8433L518.278 77.8749L488.912 77.3921L489.67 16.5977L485.574 16.5467C492.749 16.633 498.608 13.1464 498.663 8.75642C498.718 4.36461 492.942 0.731823 485.763 0.642369C478.584 0.552915 472.72 4.04066 472.665 8.43247C472.61 12.8224 478.381 16.454 485.556 16.5464L481.46 16.4954L480.406 101.113L450.557 100.952L450.583 99.9168L443.585 99.7436L443.556 100.914L442.343 100.907L442.305 107.907L443.383 107.913L442.447 145.73L449.445 145.903L450.384 107.951L488.304 108.156L488.307 107.682L488.535 107.685L488.825 84.3921L518.275 84.8763L518.248 149.591L525.466 149.557L525.504 157.712L525.712 157.713L525.743 84.9991L532.449 85.1093V123H533.029L533.027 123.228L570.259 123.443L570.248 149.591L577.466 149.557L577.504 157.712L577.712 157.713L577.726 123.486L599.019 123.608L598.447 146.73L605.445 146.903L606.02 123.648L644.5 123.87L644.536 119.765C644.474 126.944 648.781 132.789 654.156 132.82C659.53 132.851 663.938 127.056 663.999 119.877C664.061 112.697 659.754 106.852 654.38 106.821C649.005 106.79 644.598 112.585 644.536 119.765L644.571 115.66L606.223 115.439L606.39 108.69L644.305 108.895L644.308 108.418L644.536 108.421L645.119 61.4627L684.449 62.1093V100H685.029L685.027 100.228L709.268 100.368L709.248 149.591L716.466 149.557L716.504 157.712L716.712 157.713L716.736 100.411L743.679 100.566L743.642 112.991L743.87 112.992L743.865 113.466L781.784 113.847L782.136 151.809L789.135 151.744L788.785 113.917L789.863 113.928L789.933 106.929L788.72 106.916L788.709 105.746L781.71 105.811L781.719 106.846L751.872 106.546L751.89 100.613L796.5 100.87L796.536 96.7647C796.474 103.944 800.781 109.789 806.156 109.82C811.53 109.851 815.938 104.056 815.999 96.8767C816.061 89.6971 811.754 83.8519 806.38 83.821C801.005 83.7901 796.598 89.5851 796.536 96.7647L796.571 92.6595L751.914 92.4026L752.127 21.9215L748.031 21.9091C755.207 21.9277 761.033 18.3859 761.046 13.9956C761.059 9.60351 755.25 6.02541 748.07 6.00373C740.89 5.98205 735.059 9.525 735.046 13.9171C735.033 18.3074 740.837 21.8844 748.013 21.909L743.917 21.8967L743.704 92.3553L716.74 92.2002L716.76 43.8804L713.033 43.8619C719.56 43.891 724.852 39.4693 724.854 33.9829C724.857 28.4944 719.565 24.0188 713.034 23.9864C706.504 23.9539 701.208 28.3769 701.206 33.8654C701.204 39.3518 706.492 43.826 713.018 43.8618L709.292 43.8433L709.272 92.1572L693.015 92.0637V62.2501L694.281 62.2709L694.44 55.2721L693.015 55.2487V54H684.449V55.1079L645.206 54.4627L645.675 16.7073L641.59 16.6562C648.76 16.7392 654.613 13.2297 654.668 8.81183C654.723 4.38982 648.948 0.732265 641.769 0.64246C634.589 0.552655 628.725 4.0646 628.67 8.48661C628.615 12.9045 634.38 16.5593 641.55 16.6557L637.465 16.6046L636.407 101.804L606.565 101.643L606.591 100.601L599.593 100.428L599.564 101.605L598.344 101.598ZM876.866 116.667L876.936 109.62L875.717 109.607L875.706 108.43L868.707 108.495L868.716 109.537L838.875 109.237L839.136 24.0307L835.031 24.0185C842.211 24.0398 848.042 20.4721 848.055 16.0498C848.069 11.6274 842.26 8.02513 835.08 8.0038C827.9 7.98246 822.069 11.5502 822.055 15.9725C822.042 20.3948 827.851 23.9971 835.031 24.0185L830.926 24.0063L830.644 115.727L830.873 115.727L830.868 116.205L868.782 116.586L869.136 154.809L876.135 154.744L875.783 116.657L876.866 116.667ZM918.681 108.62L918.752 115.667L919.835 115.657L919.482 153.744L926.482 153.809L926.836 115.586L964.75 115.205L964.745 114.727L964.974 114.727L964.941 104.044L1013.27 104.302L1013.25 149.591L1020.47 149.557L1020.5 157.712L1020.71 157.713L1020.73 104.342L1052.5 104.511L1052.54 100.7C1052.47 107.365 1056.78 112.792 1062.16 112.82C1067.53 112.849 1071.94 107.469 1072 100.804C1072.06 94.1391 1067.75 88.7128 1062.38 88.6841C1057 88.6554 1052.6 94.0352 1052.54 100.7L1052.57 96.8892L1020.74 96.7192L1020.76 43.8804L1017.03 43.8619C1023.56 43.891 1028.85 39.4693 1028.85 33.9829C1028.86 28.4944 1023.56 24.0188 1017.03 23.9864C1010.5 23.9539 1005.21 28.3769 1005.21 33.8654C1005.2 39.3518 1010.49 43.826 1017.02 43.8618L1013.29 43.8433L1013.27 96.6793L964.918 96.421L964.692 23.0063L960.587 23.0185C967.767 22.9971 973.576 19.3948 973.562 14.9725C973.549 10.5502 967.718 6.98246 960.538 7.0038C953.358 7.02513 947.549 10.6274 947.562 15.0498C947.576 19.4721 953.407 23.0398 960.587 23.0185L956.482 23.0307L956.707 96.3772L949.015 96.3361V68.6589L950.281 68.6783L950.44 62.1809L949.015 62.1592V61H940.449V62.0285L896.593 61.3591L896.6 43.9501L892.874 43.9316C899.401 43.9607 904.692 39.539 904.695 34.0526C904.697 28.5641 899.405 24.0885 892.875 24.0561C886.344 24.0236 881.049 28.4466 881.046 33.9351C881.044 39.4215 886.332 43.8957 892.859 43.9315L889.132 43.913L889.088 149.661L896.306 149.627L896.345 157.782L896.552 157.783L896.59 67.8588L940.449 68.5282V103.704H941.029L941.027 103.916L956.73 104L956.743 108.237L926.902 108.537L926.911 107.495L919.911 107.43L919.901 108.607L918.681 108.62ZM1135.75 115.667L1135.68 108.62L1136.9 108.607L1136.91 107.43L1143.91 107.495L1143.9 108.537L1173.74 108.237L1173.48 23.0307L1177.59 23.0185L1181.69 23.0063L1181.97 114.727L1181.75 114.727L1181.75 115.205L1143.84 115.586L1143.48 153.809L1136.48 153.744L1136.84 115.657L1135.75 115.667ZM1177.59 23.0185C1170.41 23.0398 1164.58 19.4721 1164.56 15.0498C1164.55 10.6274 1170.36 7.02513 1177.54 7.0038C1184.72 6.98246 1190.55 10.5502 1190.56 14.9725C1190.58 19.3948 1184.77 22.9971 1177.59 23.0185ZM1341.68 108.62L1341.75 115.667L1342.84 115.657L1342.48 153.744L1349.48 153.809L1349.84 115.586L1387.75 115.205L1387.75 114.727L1387.97 114.727L1387.94 105.369L1426.31 105.662L1426.33 101.838C1426.29 108.526 1429.31 113.971 1433.09 114C1436.86 114.029 1439.96 108.63 1440 101.942C1440.04 95.2539 1437.02 89.8088 1433.24 89.78C1429.47 89.7512 1426.37 95.1496 1426.33 101.838L1426.36 98.0136L1387.92 97.7202L1387.69 23.0063L1383.59 23.0185C1390.77 22.9971 1396.58 19.3948 1396.56 14.9725C1396.55 10.5502 1390.72 6.98246 1383.54 7.0038C1376.36 7.02513 1370.55 10.6274 1370.56 15.0498C1370.58 19.4721 1376.41 23.0398 1383.59 23.0185L1379.48 23.0307L1379.71 97.6575L1353.63 97.4585V69.6902L1354.52 69.7097L1354.63 63.1899L1353.63 63.1679V62H1347.62V63.036L1317.75 62.381L1317.76 43.8804L1314.03 43.8619C1320.56 43.891 1325.85 39.4693 1325.85 33.9829C1325.86 28.4944 1320.56 24.0188 1314.03 23.9864C1307.5 23.9539 1302.21 28.3769 1302.21 33.8654C1302.2 39.3518 1307.49 43.826 1314.02 43.8618L1310.29 43.8433L1310.25 149.591L1317.47 149.557L1317.5 157.712L1317.71 157.713L1317.75 68.9032L1347.62 69.5583V104.852H1348.03L1348.02 105.064L1379.73 105.306L1379.74 108.237L1349.9 108.537L1349.91 107.495L1342.91 107.43L1342.9 108.607L1341.68 108.62ZM1288.87 115.667L1288.94 108.62L1287.72 108.607L1287.71 107.43L1280.71 107.495L1280.72 108.537L1250.87 108.237L1251.14 23.0307L1247.03 23.0185C1254.21 23.0398 1260.04 19.4721 1260.06 15.0498C1260.07 10.6274 1254.26 7.02513 1247.08 7.0038C1239.9 6.98246 1234.07 10.5502 1234.06 14.9725C1234.04 19.3948 1239.85 22.9971 1247.03 23.0185L1242.93 23.0063L1242.64 114.727L1242.87 114.727L1242.87 115.205L1280.78 115.586L1281.14 153.809L1288.14 153.744L1287.78 115.657L1288.87 115.667ZM197.882 108.957L198.011 101.968L196.958 101.949L196.96 100.782L190.944 100.804L190.943 101.838L165.307 101.366L166.349 16.8656L162.846 16.8298C169.004 16.8832 174.036 13.3824 174.09 9.00258C174.144 4.61686 169.187 1.01045 163.017 0.947449C156.848 0.884437 151.803 4.3887 151.749 8.77442C151.694 13.1543 156.639 16.7569 162.797 16.8293L159.294 16.7935L158.172 107.755L158.368 107.757L158.359 108.23L190.932 108.829L190.874 146.738L196.889 146.716L196.947 108.94L197.882 108.957ZM88.5042 157.712L88.712 157.713L88.7352 102.583L129.521 102.87L129.55 98.7738C129.502 105.949 133.021 111.789 137.411 111.82C141.803 111.851 145.404 106.056 145.455 98.8767C145.506 91.6971 141.986 85.8519 137.594 85.821C133.204 85.7901 129.604 91.5802 129.55 98.7556L129.579 94.6595L88.7386 94.3719L88.7599 43.8804L85.0333 43.8619C91.5602 43.891 96.8519 39.4693 96.8542 33.9829C96.8565 28.4944 91.5645 24.0188 85.0343 23.9864C78.504 23.9539 73.2082 28.3769 73.2059 33.8654C73.2036 39.3518 78.4916 43.826 85.0185 43.8618L81.292 43.8433L81.2708 94.3194L44.9564 94.0637V64.2146L45.9914 64.2346L46.1267 57.2359L44.9564 57.2133V56H37.9564V57.078L0.135263 56.347L0 63.3457L37.9564 64.0793V102H38.4304L38.4288 102.228L81.2673 102.53L81.2475 149.591L88.4658 149.557L88.5042 157.712ZM426.712 157.713L426.504 157.712L426.466 149.557L419.248 149.591L419.292 43.8433L423.018 43.8618C416.492 43.826 411.204 39.3518 411.206 33.8654C411.208 28.3769 416.504 23.9539 423.034 23.9864C429.565 24.0188 434.857 28.4944 434.854 33.9829C434.852 39.4693 429.56 43.891 423.033 43.8619L426.76 43.8804L426.712 157.713ZM1119.71 157.713L1119.5 157.712L1119.47 149.557L1112.25 149.591L1112.29 43.8433L1116.02 43.8618C1109.49 43.826 1104.2 39.3518 1104.21 33.8654C1104.21 28.3769 1109.5 23.9539 1116.03 23.9864C1122.56 24.0188 1127.86 28.4944 1127.85 33.9829C1127.85 39.4693 1122.56 43.891 1116.03 43.8619L1119.76 43.8804L1119.71 157.713ZM1218.5 157.712L1218.71 157.713L1218.76 43.8804L1215.03 43.8619C1221.56 43.891 1226.85 39.4693 1226.85 33.9829C1226.86 28.4944 1221.56 24.0188 1215.03 23.9864C1208.5 23.9539 1203.21 28.3769 1203.21 33.8654C1203.2 39.3518 1208.49 43.826 1215.02 43.8618L1211.29 43.8433L1211.25 149.591L1218.47 149.557L1218.5 157.712Z" fill="#C4C4C4"/>
</svg>
