<svg width="214" height="211" viewBox="0 0 214 211" fill="none" xmlns="http://www.w3.org/2000/svg">
<path d="M178.096 73.8685C212.451 102.472 199.831 120.341 172.997 152.571C146.162 184.801 96.5589 187.741 62.2044 159.137C27.8499 130.534 21.7536 81.2185 48.5881 48.9887C75.4225 16.7589 143.742 45.265 178.096 73.8685Z" fill="#EBFF00"/>
<path d="M74.1963 116H67.165V101.375H53.4541V116H46.4229V81.875H53.4541V95.7031H67.165V81.875H74.1963V116ZM88.0244 84.4062V90.6406H92.3604V95.6094H88.0244V108.266C88.0244 109.203 88.2041 109.875 88.5635 110.281C88.9229 110.687 89.6104 110.891 90.626 110.891C91.376 110.891 92.04 110.836 92.6182 110.727V115.859C91.29 116.266 89.9229 116.469 88.5166 116.469C83.7666 116.469 81.3447 114.07 81.251 109.273V95.6094H77.5479V90.6406H81.251V84.4062H88.0244ZM102.485 90.6406L102.696 93.4765C104.493 91.2734 106.923 90.1719 109.985 90.1719C113.251 90.1719 115.493 91.4609 116.712 94.039C118.493 91.4609 121.032 90.1719 124.329 90.1719C127.079 90.1719 129.126 90.9765 130.47 92.5859C131.813 94.1797 132.485 96.5859 132.485 99.8047V116H125.688V99.8281C125.688 98.3906 125.407 97.3437 124.845 96.6875C124.282 96.0156 123.29 95.6797 121.868 95.6797C119.837 95.6797 118.431 96.6484 117.649 98.5859L117.673 116H110.899V99.8515C110.899 98.3828 110.61 97.3203 110.032 96.664C109.454 96.0078 108.47 95.6797 107.079 95.6797C105.157 95.6797 103.767 96.4765 102.907 98.0703V116H96.1338V90.6406H102.485ZM144.86 116H138.063V80H144.86V116ZM151.188 99.2187L153.157 81.875H172.282V87.5234H158.712L157.868 94.8594C159.478 94 161.188 93.5703 163.001 93.5703C166.251 93.5703 168.798 94.5781 170.642 96.5937C172.485 98.6094 173.407 101.43 173.407 105.055C173.407 107.258 172.938 109.234 172.001 110.984C171.079 112.719 169.751 114.07 168.017 115.039C166.282 115.992 164.235 116.469 161.876 116.469C159.813 116.469 157.899 116.055 156.134 115.227C154.368 114.383 152.97 113.203 151.938 111.687C150.923 110.172 150.384 108.445 150.321 106.508H157.024C157.165 107.93 157.657 109.039 158.501 109.836C159.36 110.617 160.478 111.008 161.853 111.008C163.384 111.008 164.563 110.461 165.392 109.367C166.22 108.258 166.634 106.695 166.634 104.68C166.634 102.742 166.157 101.258 165.204 100.227C164.251 99.1953 162.899 98.6797 161.149 98.6797C159.54 98.6797 158.235 99.1015 157.235 99.9453L156.579 100.555L151.188 99.2187Z" fill="white"/>
</svg>
