<svg width="238" height="171" viewBox="0 0 238 171" fill="none" xmlns="http://www.w3.org/2000/svg">
<path d="M238 85.2776C238 132.375 158.587 170.555 108.137 170.555C57.6865 170.555 0 178.104 0 131.006C0 83.9087 57.6865 0 108.137 0C158.587 0 238 38.1801 238 85.2776Z" fill="#D70202"/>
<path d="M29.4143 109.274L34.2364 107.14L44.0776 121.874C44.9823 123.229 45.4507 124.575 45.4827 125.911C45.519 127.234 45.1258 128.443 44.3032 129.54C43.4805 130.636 42.3137 131.519 40.8028 132.188C38.3275 133.283 36.0179 133.567 33.874 133.039C31.7237 132.501 29.9488 131.184 28.5494 129.089L33.4036 126.94C34.1001 127.983 34.8554 128.646 35.6695 128.93C36.4837 129.213 37.4105 129.125 38.4499 128.665C39.3714 128.257 39.9135 127.644 40.0759 126.828C40.2384 126.011 39.965 125.071 39.2555 124.009L29.4143 109.274ZM62.3551 122.268C61.8869 121.983 61.4159 121.579 60.9419 121.056C60.5783 122.695 59.4964 123.912 57.6961 124.709C55.9923 125.463 54.2785 125.641 52.5545 125.243C50.8413 124.84 49.529 123.956 48.6178 122.592C47.4983 120.916 47.3196 119.328 48.0817 117.829C48.8545 116.325 50.5289 114.997 53.1049 113.844L55.2427 112.898L54.6373 111.991C54.1492 111.26 53.5497 110.768 52.8389 110.515C52.1388 110.256 51.3441 110.324 50.4547 110.718C49.6724 111.064 49.1702 111.507 48.9479 112.048C48.7364 112.583 48.8291 113.148 49.2262 113.743L44.5809 115.799C43.9691 114.883 43.7136 113.898 43.8144 112.843C43.9152 111.788 44.3871 110.79 45.2301 109.849C46.0665 108.898 47.192 108.109 48.6065 107.483C50.7496 106.534 52.7767 106.274 54.6879 106.704C56.6032 107.118 58.1531 108.213 59.3377 109.986L63.9166 116.842C64.9297 118.338 65.9184 119.371 66.8826 119.942L67.0486 120.19L62.3551 122.268ZM56.5511 121.03C57.2369 120.727 57.778 120.311 58.1744 119.782C58.5643 119.243 58.7424 118.678 58.7086 118.087L56.8926 115.368L55.1567 116.136C52.8314 117.166 52.0819 118.445 52.9081 119.973L53.058 120.228C53.4095 120.755 53.9028 121.098 54.5378 121.259C55.1728 121.42 55.8439 121.344 56.5511 121.03ZM72.732 110.989L68.8455 98.9023L73.6997 96.7534L78.3965 115.167L73.9602 117.131L57.5297 103.912L62.3839 101.763L72.732 110.989ZM96.1418 107.311C95.6736 107.026 95.2026 106.622 94.7286 106.1C94.365 107.738 93.283 108.956 91.4828 109.752C89.779 110.507 88.0651 110.685 86.3412 110.286C84.6279 109.883 83.3157 108.999 82.4045 107.635C81.285 105.959 81.1063 104.371 81.8684 102.872C82.6412 101.368 84.3156 100.04 86.8915 98.8871L89.0293 97.9408L88.424 97.0345C87.9359 96.3036 87.3364 95.8114 86.6256 95.5579C85.9255 95.2996 85.1307 95.3673 84.2413 95.7611C83.4591 96.1073 82.9568 96.5506 82.7346 97.091C82.523 97.6265 82.6158 98.1915 83.0128 98.786L78.3676 100.842C77.7557 99.9263 77.5002 98.9409 77.601 97.8862C77.7019 96.8315 78.1737 95.8334 79.0167 94.8921C79.8532 93.941 80.9787 93.1523 82.3931 92.5262C84.5363 91.5774 86.5634 91.3177 88.4745 91.7469C90.3899 92.1617 91.9398 93.2558 93.1244 95.0294L97.7033 101.885C98.7164 103.381 99.705 104.414 100.669 104.985L100.835 105.233L96.1418 107.311ZM90.3378 106.074C91.0236 105.77 91.5647 105.354 91.9611 104.825C92.351 104.286 92.529 103.721 92.4952 103.13L90.6793 100.411L88.9433 101.18C86.618 102.209 85.8685 103.488 86.6948 105.016L86.8447 105.272C87.1962 105.798 87.6894 106.141 88.3244 106.302C88.9594 106.463 89.6306 106.387 90.3378 106.074ZM110.212 95.4195C109.867 94.903 109.313 94.6243 108.55 94.5833C107.791 94.5279 106.712 94.6584 105.313 94.9748C100.649 96.0165 97.5138 95.3338 95.9061 92.9268C94.9688 91.5235 94.8254 90.0719 95.4757 88.5719C96.1302 87.0574 97.4916 85.8423 99.5597 84.9268C101.767 83.9496 103.846 83.6419 105.795 84.0037C107.755 84.3608 109.24 85.2945 110.248 86.805L105.603 88.8614C105.2 88.2572 104.653 87.8551 103.964 87.655C103.269 87.4452 102.466 87.5419 101.555 87.9451C100.773 88.2914 100.275 88.7202 100.061 89.2316C99.8469 89.7429 99.9059 90.2471 100.238 90.7441C100.55 91.2118 101.045 91.4851 101.723 91.564C102.404 91.6284 103.395 91.5117 104.696 91.2137C105.99 90.9061 107.121 90.7083 108.09 90.6204C111.091 90.3526 113.265 91.2274 114.612 93.2446C115.575 94.6869 115.676 96.1575 114.914 97.6565C114.145 99.1457 112.684 100.367 110.53 101.321C109.073 101.966 107.62 102.306 106.172 102.341C104.727 102.361 103.411 102.105 102.221 101.571C101.025 101.027 100.108 100.278 99.4699 99.3227L103.874 97.3731C104.418 98.1045 105.107 98.5442 105.942 98.6924C106.777 98.8405 107.671 98.7035 108.625 98.2813C109.514 97.8875 110.083 97.44 110.332 96.9387C110.584 96.4229 110.544 95.9165 110.212 95.4195ZM125.808 90.1445C126.665 89.765 127.218 89.2423 127.468 88.5763C127.717 87.9104 127.615 87.217 127.161 86.4961L131.517 84.5678C132.222 85.6445 132.558 86.771 132.525 87.9475C132.485 89.1141 132.079 90.1903 131.307 91.1759C130.54 92.147 129.491 92.9266 128.163 93.5148C125.677 94.6154 123.237 94.7672 120.845 93.9703C118.445 93.1637 116.4 91.4936 114.707 88.9599L114.522 88.6821C112.895 86.2459 112.309 83.9863 112.764 81.9034C113.22 79.8205 114.69 78.2287 117.176 77.1282C119.352 76.1652 121.47 75.9596 123.533 76.5113C125.599 77.0485 127.268 78.2479 128.539 80.1094L124.183 82.0377C123.615 81.2286 122.894 80.6893 122.02 80.4198C121.139 80.1405 120.259 80.1953 119.381 80.5843C118.298 81.0634 117.719 81.7869 117.644 82.7547C117.572 83.708 118.074 84.9886 119.148 86.5965L119.441 87.035C120.527 88.6625 121.582 89.7109 122.603 90.1804C123.625 90.6498 124.693 90.6379 125.808 90.1445ZM139.675 72.6796C138.991 72.8816 138.408 73.0892 137.926 73.3027C136.168 74.0807 135.378 75.1315 135.554 76.4551L142.466 86.8043L137.821 88.8607L127.257 73.0445L131.645 71.102L133.033 72.9307C132.995 71.066 133.802 69.7684 135.452 69.0379C135.966 68.8102 136.491 68.6601 137.026 68.5875L139.675 72.6796ZM154.746 81.368L150.085 83.4315L139.521 67.6154L144.182 65.5519L154.746 81.368ZM136.514 63.6434C136.091 63.01 135.973 62.3867 136.161 61.7734C136.359 61.1554 136.86 60.6685 137.663 60.3127C138.456 59.9617 139.225 59.8864 139.97 60.087C140.715 60.2876 141.299 60.7046 141.722 61.338C142.152 61.9812 142.262 62.6141 142.053 63.2369C141.855 63.8549 141.365 64.3371 140.582 64.6834C139.8 65.0296 139.031 65.1049 138.276 64.909C137.531 64.7085 136.944 64.2866 136.514 63.6434ZM169.059 64.975C170.686 67.4113 171.38 69.6355 171.142 71.6478C170.907 73.6456 169.756 75.1023 167.688 76.0178C165.93 76.7958 164.139 76.8688 162.315 76.237L167.294 83.692L162.649 85.7483L148.024 63.8513L152.332 61.9443L153.527 63.4226C153.832 61.6967 154.89 60.4328 156.701 59.6312C158.844 58.6824 160.992 58.6659 163.145 59.5816C165.298 60.4973 167.22 62.2221 168.913 64.7558L169.059 64.975ZM164.209 66.7244C163.226 65.2529 162.178 64.2457 161.066 63.7028C159.964 63.1551 158.867 63.1232 157.774 63.6071C156.317 64.2522 155.653 65.2025 155.784 66.4579L160.109 72.9334C161.373 73.7248 162.734 73.7978 164.191 73.1527C166.409 72.1708 166.415 70.028 164.209 66.7244ZM169.537 49.2897L172.134 53.178L175.108 51.8616L177.178 54.9606L174.204 56.2769L179.476 64.1704C179.867 64.7551 180.27 65.1196 180.685 65.2638C181.101 65.4081 181.657 65.3261 182.354 65.0177C182.868 64.79 183.301 64.5543 183.652 64.3106L185.79 67.5118C185.048 68.1684 184.195 68.7102 183.231 69.1371C179.973 70.5792 177.313 69.8186 175.251 66.8553L169.559 58.3333L167.019 59.4576L164.949 56.3586L167.489 55.2344L164.892 51.3461L169.537 49.2897Z" fill="white"/>
</svg>
