<svg width="129" height="99" viewBox="0 0 129 99" fill="none" xmlns="http://www.w3.org/2000/svg">
<ellipse cx="62.5" cy="49.5" rx="62.5" ry="49.5" fill="#51FE00"/>
<path d="M36.5586 48.9824V58H31.2852V32.4062H41.2695C43.1914 32.4062 44.8789 32.7578 46.332 33.4609C47.7969 34.1641 48.9219 35.166 49.707 36.4668C50.4922 37.7559 50.8848 39.2266 50.8848 40.8789C50.8848 43.3867 50.0234 45.3672 48.3008 46.8203C46.5898 48.2617 44.2168 48.9824 41.1816 48.9824H36.5586ZM36.5586 44.7109H41.2695C42.6641 44.7109 43.7246 44.3828 44.4512 43.7266C45.1895 43.0703 45.5586 42.1328 45.5586 40.9141C45.5586 39.6602 45.1895 38.6465 44.4512 37.873C43.7129 37.0996 42.6934 36.7012 41.3926 36.6777H36.5586V44.7109ZM75.3535 58H70.0801V47.0312H59.7969V58H54.5234V32.4062H59.7969V42.7773H70.0801V32.4062H75.3535V58ZM85.25 48.9824V58H79.9766V32.4062H89.9609C91.8828 32.4062 93.5703 32.7578 95.0234 33.4609C96.4883 34.1641 97.6133 35.166 98.3984 36.4668C99.1836 37.7559 99.5762 39.2266 99.5762 40.8789C99.5762 43.3867 98.7148 45.3672 96.9922 46.8203C95.2812 48.2617 92.9082 48.9824 89.873 48.9824H85.25ZM85.25 44.7109H89.9609C91.3555 44.7109 92.416 44.3828 93.1426 43.7266C93.8809 43.0703 94.25 42.1328 94.25 40.9141C94.25 39.6602 93.8809 38.6465 93.1426 37.873C92.4043 37.0996 91.3848 36.7012 90.084 36.6777H85.25V44.7109Z" fill="white"/>
</svg>
