<svg width="226" height="127" viewBox="0 0 226 127" fill="none" xmlns="http://www.w3.org/2000/svg">
<ellipse cx="102" cy="55.5" rx="102" ry="55.5" fill="#02FFFF"/>
<path d="M59.6797 48.5078H54.0781V61H47.0469V26.875H59.7266C63.7578 26.875 66.8672 27.7734 69.0547 29.5703C71.2422 31.3672 72.3359 33.9062 72.3359 37.1875C72.3359 39.5156 71.8281 41.4609 70.8125 43.0234C69.8125 44.5703 68.2891 45.8047 66.2422 46.7266L73.625 60.6719V61H66.0781L59.6797 48.5078ZM54.0781 42.8125H59.75C61.5156 42.8125 62.8828 42.3672 63.8516 41.4766C64.8203 40.5703 65.3047 39.3281 65.3047 37.75C65.3047 36.1406 64.8438 34.875 63.9219 33.9531C63.0156 33.0312 61.6172 32.5703 59.7266 32.5703H54.0781V42.8125ZM88.9297 61.4688C85.2109 61.4688 82.1797 60.3281 79.8359 58.0469C77.5078 55.7656 76.3438 52.7266 76.3438 48.9297V48.2734C76.3438 45.7266 76.8359 43.4531 77.8203 41.4531C78.8047 39.4375 80.1953 37.8906 81.9922 36.8125C83.8047 35.7188 85.8672 35.1719 88.1797 35.1719C91.6484 35.1719 94.375 36.2656 96.3594 38.4531C98.3594 40.6406 99.3594 43.7422 99.3594 47.7578V50.5234H83.2109C83.4297 52.1797 84.0859 53.5078 85.1797 54.5078C86.2891 55.5078 87.6875 56.0078 89.375 56.0078C91.9844 56.0078 94.0234 55.0625 95.4922 53.1719L98.8203 56.8984C97.8047 58.3359 96.4297 59.4609 94.6953 60.2734C92.9609 61.0703 91.0391 61.4688 88.9297 61.4688ZM88.1562 40.6562C86.8125 40.6562 85.7188 41.1094 84.875 42.0156C84.0469 42.9219 83.5156 44.2188 83.2812 45.9062H92.7031V45.3672C92.6719 43.8672 92.2656 42.7109 91.4844 41.8984C90.7031 41.0703 89.5938 40.6562 88.1562 40.6562ZM117.922 61C117.609 60.3906 117.383 59.6328 117.242 58.7266C115.602 60.5547 113.469 61.4688 110.844 61.4688C108.359 61.4688 106.297 60.75 104.656 59.3125C103.031 57.875 102.219 56.0625 102.219 53.875C102.219 51.1875 103.211 49.125 105.195 47.6875C107.195 46.25 110.078 45.5234 113.844 45.5078H116.961V44.0547C116.961 42.8828 116.656 41.9453 116.047 41.2422C115.453 40.5391 114.508 40.1875 113.211 40.1875C112.07 40.1875 111.172 40.4609 110.516 41.0078C109.875 41.5547 109.555 42.3047 109.555 43.2578H102.781C102.781 41.7891 103.234 40.4297 104.141 39.1797C105.047 37.9297 106.328 36.9531 107.984 36.25C109.641 35.5312 111.5 35.1719 113.562 35.1719C116.688 35.1719 119.164 35.9609 120.992 37.5391C122.836 39.1016 123.758 41.3047 123.758 44.1484V55.1406C123.773 57.5469 124.109 59.3672 124.766 60.6016V61H117.922ZM112.32 56.2891C113.32 56.2891 114.242 56.0703 115.086 55.6328C115.93 55.1797 116.555 54.5781 116.961 53.8281V49.4688H114.43C111.039 49.4688 109.234 50.6406 109.016 52.9844L108.992 53.3828C108.992 54.2266 109.289 54.9219 109.883 55.4688C110.477 56.0156 111.289 56.2891 112.32 56.2891ZM139.508 56.0078C140.758 56.0078 141.773 55.6641 142.555 54.9766C143.336 54.2891 143.742 53.375 143.773 52.2344H150.125C150.109 53.9531 149.641 55.5312 148.719 56.9688C147.797 58.3906 146.531 59.5 144.922 60.2969C143.328 61.0781 141.562 61.4688 139.625 61.4688C136 61.4688 133.141 60.3203 131.047 58.0234C128.953 55.7109 127.906 52.5234 127.906 48.4609V48.0156C127.906 44.1094 128.945 40.9922 131.023 38.6641C133.102 36.3359 135.953 35.1719 139.578 35.1719C142.75 35.1719 145.289 36.0781 147.195 37.8906C149.117 39.6875 150.094 42.0859 150.125 45.0859H143.773C143.742 43.7734 143.336 42.7109 142.555 41.8984C141.773 41.0703 140.742 40.6562 139.461 40.6562C137.883 40.6562 136.688 41.2344 135.875 42.3906C135.078 43.5312 134.68 45.3906 134.68 47.9688V48.6719C134.68 51.2812 135.078 53.1562 135.875 54.2969C136.672 55.4375 137.883 56.0078 139.508 56.0078ZM162.102 29.4062V35.6406H166.438V40.6094H162.102V53.2656C162.102 54.2031 162.281 54.875 162.641 55.2812C163 55.6875 163.688 55.8906 164.703 55.8906C165.453 55.8906 166.117 55.8359 166.695 55.7266V60.8594C165.367 61.2656 164 61.4688 162.594 61.4688C157.844 61.4688 155.422 59.0703 155.328 54.2734V40.6094H151.625V35.6406H155.328V29.4062H162.102Z" fill="white"/>
</svg>
