<svg width="290" height="145" viewBox="0 0 290 145" fill="none" xmlns="http://www.w3.org/2000/svg">
<path d="M270.774 96.738C270.774 132.293 208.985 145 160.281 145C111.578 145 18.3091 133.935 2.04794 65.534C-11.1044 10.2096 41.5298 1.15649 90.2333 1.15649C298.501 -9.90839 270.774 61.1833 270.774 96.738Z" fill="#923F8A"/>
<path d="M68.2188 67.6172L71.6641 49.4062H76.9199L71.2422 75H65.9336L61.7676 57.8789L57.6016 75H52.293L46.6152 49.4062H51.8711L55.334 67.582L59.5527 49.4062H64.0176L68.2188 67.6172ZM78.0977 65.3145C78.0977 63.4277 78.4609 61.7461 79.1875 60.2695C79.9141 58.793 80.957 57.6504 82.3164 56.8418C83.6875 56.0332 85.2754 55.6289 87.0801 55.6289C89.6465 55.6289 91.7383 56.4141 93.3555 57.9844C94.9844 59.5547 95.8926 61.6875 96.0801 64.3828L96.1152 65.6836C96.1152 68.6016 95.3008 70.9453 93.6719 72.7148C92.043 74.4727 89.8574 75.3516 87.1152 75.3516C84.373 75.3516 82.1816 74.4727 80.541 72.7148C78.9121 70.957 78.0977 68.5664 78.0977 65.543V65.3145ZM83.1777 65.6836C83.1777 67.4883 83.5176 68.8711 84.1973 69.832C84.877 70.7812 85.8496 71.2559 87.1152 71.2559C88.3457 71.2559 89.3066 70.7871 89.998 69.8496C90.6895 68.9004 91.0352 67.3887 91.0352 65.3145C91.0352 63.5449 90.6895 62.1738 89.998 61.2012C89.3066 60.2285 88.334 59.7422 87.0801 59.7422C85.8379 59.7422 84.877 60.2285 84.1973 61.2012C83.5176 62.1621 83.1777 63.6562 83.1777 65.6836ZM109.932 60.7441C109.24 60.6504 108.631 60.6035 108.104 60.6035C106.182 60.6035 104.922 61.2539 104.324 62.5547V75H99.2441V55.9805H104.043L104.184 58.248C105.203 56.502 106.615 55.6289 108.42 55.6289C108.982 55.6289 109.51 55.7051 110.002 55.8574L109.932 60.7441ZM111.25 65.3496C111.25 62.3848 111.912 60.0234 113.236 58.2656C114.572 56.5078 116.395 55.6289 118.703 55.6289C120.555 55.6289 122.084 56.3203 123.291 57.7031V48H128.389V75H123.801L123.555 72.9785C122.289 74.5605 120.66 75.3516 118.668 75.3516C116.43 75.3516 114.631 74.4727 113.271 72.7148C111.924 70.9453 111.25 68.4902 111.25 65.3496ZM116.33 65.7188C116.33 67.5 116.641 68.8652 117.262 69.8145C117.883 70.7637 118.785 71.2383 119.969 71.2383C121.539 71.2383 122.646 70.5762 123.291 69.252V61.7461C122.658 60.4219 121.562 59.7598 120.004 59.7598C117.555 59.7598 116.33 61.7461 116.33 65.7188ZM149.447 65.666C149.447 68.5957 148.779 70.9453 147.443 72.7148C146.119 74.4727 144.326 75.3516 142.064 75.3516C140.143 75.3516 138.59 74.6836 137.406 73.3477V82.3125H132.326V55.9805H137.037L137.213 57.8438C138.443 56.3672 140.049 55.6289 142.029 55.6289C144.373 55.6289 146.195 56.4961 147.496 58.2305C148.797 59.9648 149.447 62.3555 149.447 65.4023V65.666ZM144.367 65.2969C144.367 63.5273 144.051 62.1621 143.418 61.2012C142.797 60.2402 141.889 59.7598 140.693 59.7598C139.1 59.7598 138.004 60.3691 137.406 61.5879V69.375C138.027 70.6289 139.135 71.2559 140.729 71.2559C143.154 71.2559 144.367 69.2695 144.367 65.2969ZM163.299 60.7441C162.607 60.6504 161.998 60.6035 161.471 60.6035C159.549 60.6035 158.289 61.2539 157.691 62.5547V75H152.611V55.9805H157.41L157.551 58.248C158.57 56.502 159.982 55.6289 161.787 55.6289C162.35 55.6289 162.877 55.7051 163.369 55.8574L163.299 60.7441ZM174.162 75.3516C171.373 75.3516 169.1 74.4961 167.342 72.7852C165.596 71.0742 164.723 68.7949 164.723 65.9473V65.4551C164.723 63.5449 165.092 61.8398 165.83 60.3398C166.568 58.8281 167.611 57.668 168.959 56.8594C170.318 56.0391 171.865 55.6289 173.6 55.6289C176.201 55.6289 178.246 56.4492 179.734 58.0898C181.234 59.7305 181.984 62.0566 181.984 65.0684V67.1426H169.873C170.037 68.3848 170.529 69.3809 171.35 70.1309C172.182 70.8809 173.23 71.2559 174.496 71.2559C176.453 71.2559 177.982 70.5469 179.084 69.1289L181.58 71.9238C180.818 73.002 179.787 73.8457 178.486 74.4551C177.186 75.0527 175.744 75.3516 174.162 75.3516ZM173.582 59.7422C172.574 59.7422 171.754 60.082 171.121 60.7617C170.5 61.4414 170.102 62.4141 169.926 63.6797H176.992V63.2754C176.969 62.1504 176.664 61.2832 176.078 60.6738C175.492 60.0527 174.66 59.7422 173.582 59.7422ZM195.186 69.7441C195.186 69.123 194.875 68.6367 194.254 68.2852C193.645 67.9219 192.66 67.5996 191.301 67.3184C186.777 66.3691 184.516 64.4473 184.516 61.5527C184.516 59.8652 185.213 58.459 186.607 57.334C188.014 56.1973 189.848 55.6289 192.109 55.6289C194.523 55.6289 196.451 56.1973 197.893 57.334C199.346 58.4707 200.072 59.9473 200.072 61.7637H194.992C194.992 61.0371 194.758 60.4395 194.289 59.9707C193.82 59.4902 193.088 59.25 192.092 59.25C191.236 59.25 190.574 59.4434 190.105 59.8301C189.637 60.2168 189.402 60.709 189.402 61.3066C189.402 61.8691 189.666 62.3262 190.193 62.6777C190.732 63.0176 191.635 63.3164 192.9 63.5742C194.166 63.8203 195.232 64.1016 196.1 64.418C198.783 65.4023 200.125 67.1074 200.125 69.5332C200.125 71.2676 199.381 72.6738 197.893 73.752C196.404 74.8184 194.482 75.3516 192.127 75.3516C190.533 75.3516 189.115 75.0703 187.873 74.5078C186.643 73.9336 185.676 73.1543 184.973 72.1699C184.27 71.1738 183.918 70.1016 183.918 68.9531H188.734C188.781 69.8555 189.115 70.5469 189.736 71.0273C190.357 71.5078 191.189 71.748 192.232 71.748C193.205 71.748 193.938 71.5664 194.43 71.2031C194.934 70.8281 195.186 70.3418 195.186 69.7441ZM213.713 69.7441C213.713 69.123 213.402 68.6367 212.781 68.2852C212.172 67.9219 211.188 67.5996 209.828 67.3184C205.305 66.3691 203.043 64.4473 203.043 61.5527C203.043 59.8652 203.74 58.459 205.135 57.334C206.541 56.1973 208.375 55.6289 210.637 55.6289C213.051 55.6289 214.979 56.1973 216.42 57.334C217.873 58.4707 218.6 59.9473 218.6 61.7637H213.52C213.52 61.0371 213.285 60.4395 212.816 59.9707C212.348 59.4902 211.615 59.25 210.619 59.25C209.764 59.25 209.102 59.4434 208.633 59.8301C208.164 60.2168 207.93 60.709 207.93 61.3066C207.93 61.8691 208.193 62.3262 208.721 62.6777C209.26 63.0176 210.162 63.3164 211.428 63.5742C212.693 63.8203 213.76 64.1016 214.627 64.418C217.311 65.4023 218.652 67.1074 218.652 69.5332C218.652 71.2676 217.908 72.6738 216.42 73.752C214.932 74.8184 213.01 75.3516 210.654 75.3516C209.061 75.3516 207.643 75.0703 206.4 74.5078C205.17 73.9336 204.203 73.1543 203.5 72.1699C202.797 71.1738 202.445 70.1016 202.445 68.9531H207.262C207.309 69.8555 207.643 70.5469 208.264 71.0273C208.885 71.5078 209.717 71.748 210.76 71.748C211.732 71.748 212.465 71.5664 212.957 71.2031C213.461 70.8281 213.713 70.3418 213.713 69.7441Z" fill="white"/>
</svg>
